<?xml version="1.0" encoding="UTF-8" standalone="no"?>
<!DOCTYPE svg PUBLIC "-//W3C//DTD SVG 1.1//EN"
 "http://www.w3.org/Graphics/SVG/1.1/DTD/svg11.dtd">
<!-- Generated by graphviz version 8.1.0 (0)
 -->
<!-- Pages: 1 -->
<svg width="1339pt" height="210pt"
 viewBox="0.00 0.00 1338.88 210.00" xmlns="http://www.w3.org/2000/svg" xmlns:xlink="http://www.w3.org/1999/xlink">
<g id="graph0" class="graph" transform="scale(1 1) rotate(0) translate(4 206)">
<polygon fill="white" stroke="none" points="-4,4 -4,-206 1334.88,-206 1334.88,4 -4,4"/>
<!-- 1629195279360 -->
<g id="node1" class="node">
<title>1629195279360</title>
<polygon fill="none" stroke="black" points="870,-82.5 870,-118.5 1031,-118.5 1031,-82.5 870,-82.5"/>
<text text-anchor="middle" x="909.88" y="-95.7" font-family="Times New Roman,serif" font-size="14.00">data 0.1024</text>
<polyline fill="none" stroke="black" points="949.75,-83 949.75,-118.5"/>
<text text-anchor="middle" x="990.38" y="-95.7" font-family="Times New Roman,serif" font-size="14.00">grad 1.0000</text>
</g>
<!-- 1629195279264ReLU -->
<g id="node12" class="node">
<title>1629195279264ReLU</title>
<ellipse fill="none" stroke="black" cx="1100.44" cy="-100.5" rx="33.44" ry="18"/>
<text text-anchor="middle" x="1100.44" y="-95.45" font-family="Times New Roman,serif" font-size="14.00">ReLU</text>
</g>
<!-- 1629195279360&#45;&gt;1629195279264ReLU -->
<g id="edge14" class="edge">
<title>1629195279360&#45;&gt;1629195279264ReLU</title>
<path fill="none" stroke="black" d="M1030.67,-100.5C1039.35,-100.5 1047.94,-100.5 1055.95,-100.5"/>
<polygon fill="black" stroke="black" points="1055.84,-104 1065.84,-100.5 1055.84,-97 1055.84,-104"/>
</g>
<!-- 1629195279360+ -->
<g id="node2" class="node">
<title>1629195279360+</title>
<ellipse fill="none" stroke="black" cx="807" cy="-100.5" rx="27" ry="18"/>
<text text-anchor="middle" x="807" y="-95.45" font-family="Times New Roman,serif" font-size="14.00">+</text>
</g>
<!-- 1629195279360+&#45;&gt;1629195279360 -->
<g id="edge1" class="edge">
<title>1629195279360+&#45;&gt;1629195279360</title>
<path fill="none" stroke="black" d="M834.28,-100.5C841.75,-100.5 850.33,-100.5 859.37,-100.5"/>
<polygon fill="black" stroke="black" points="859.15,-104 869.15,-100.5 859.15,-97 859.15,-104"/>
</g>
<!-- 1629213575296 -->
<g id="node3" class="node">
<title>1629213575296</title>
<polygon fill="none" stroke="black" points="0,-83.5 0,-119.5 161,-119.5 161,-83.5 0,-83.5"/>
<text text-anchor="middle" x="39.88" y="-96.7" font-family="Times New Roman,serif" font-size="14.00">data 0.2355</text>
<polyline fill="none" stroke="black" points="79.75,-84 79.75,-119.5"/>
<text text-anchor="middle" x="120.38" y="-96.7" font-family="Times New Roman,serif" font-size="14.00">grad 1.0000</text>
</g>
<!-- 1629195280080* -->
<g id="node5" class="node">
<title>1629195280080*</title>
<ellipse fill="none" stroke="black" cx="224" cy="-73.5" rx="27" ry="18"/>
<text text-anchor="middle" x="224" y="-68.45" font-family="Times New Roman,serif" font-size="14.00">*</text>
</g>
<!-- 1629213575296&#45;&gt;1629195280080* -->
<g id="edge12" class="edge">
<title>1629213575296&#45;&gt;1629195280080*</title>
<path fill="none" stroke="black" d="M160.94,-85.78C170.12,-83.96 179.1,-82.19 187.26,-80.57"/>
<polygon fill="black" stroke="black" points="187.67,-83.86 196.8,-78.49 186.31,-76.99 187.67,-83.86"/>
</g>
<!-- 1629195280080 -->
<g id="node4" class="node">
<title>1629195280080</title>
<polygon fill="none" stroke="black" points="289.25,-55.5 289.25,-91.5 450.25,-91.5 450.25,-55.5 289.25,-55.5"/>
<text text-anchor="middle" x="329.12" y="-68.7" font-family="Times New Roman,serif" font-size="14.00">data 0.2355</text>
<polyline fill="none" stroke="black" points="369,-56 369,-91.5"/>
<text text-anchor="middle" x="409.62" y="-68.7" font-family="Times New Roman,serif" font-size="14.00">grad 1.0000</text>
</g>
<!-- 1629195279840+ -->
<g id="node15" class="node">
<title>1629195279840+</title>
<ellipse fill="none" stroke="black" cx="515.5" cy="-73.5" rx="27" ry="18"/>
<text text-anchor="middle" x="515.5" y="-68.45" font-family="Times New Roman,serif" font-size="14.00">+</text>
</g>
<!-- 1629195280080&#45;&gt;1629195279840+ -->
<g id="edge13" class="edge">
<title>1629195280080&#45;&gt;1629195279840+</title>
<path fill="none" stroke="black" d="M450.19,-73.5C459.57,-73.5 468.77,-73.5 477.15,-73.5"/>
<polygon fill="black" stroke="black" points="477.01,-77 487.01,-73.5 477.01,-70 477.01,-77"/>
</g>
<!-- 1629195280080*&#45;&gt;1629195280080 -->
<g id="edge2" class="edge">
<title>1629195280080*&#45;&gt;1629195280080</title>
<path fill="none" stroke="black" d="M251.37,-73.5C259.4,-73.5 268.73,-73.5 278.54,-73.5"/>
<polygon fill="black" stroke="black" points="278.34,-77 288.34,-73.5 278.34,-70 278.34,-77"/>
</g>
<!-- 1629213859536 -->
<g id="node6" class="node">
<title>1629213859536</title>
<polygon fill="none" stroke="black" points="287,-165.5 287,-201.5 452.5,-201.5 452.5,-165.5 287,-165.5"/>
<text text-anchor="middle" x="326.88" y="-178.7" font-family="Times New Roman,serif" font-size="14.00">data 0.0665</text>
<polyline fill="none" stroke="black" points="366.75,-166 366.75,-201.5"/>
<text text-anchor="middle" x="409.62" y="-178.7" font-family="Times New Roman,serif" font-size="14.00">grad &#45;2.0000</text>
</g>
<!-- 1629195279600* -->
<g id="node8" class="node">
<title>1629195279600*</title>
<ellipse fill="none" stroke="black" cx="515.5" cy="-128.5" rx="27" ry="18"/>
<text text-anchor="middle" x="515.5" y="-123.45" font-family="Times New Roman,serif" font-size="14.00">*</text>
</g>
<!-- 1629213859536&#45;&gt;1629195279600* -->
<g id="edge8" class="edge">
<title>1629213859536&#45;&gt;1629195279600*</title>
<path fill="none" stroke="black" d="M427.76,-165.53C436.11,-162.65 444.56,-159.59 452.5,-156.5 462.63,-152.55 473.49,-147.83 483.24,-143.39"/>
<polygon fill="black" stroke="black" points="484.32,-146.28 491.93,-138.91 481.39,-139.93 484.32,-146.28"/>
</g>
<!-- 1629195279600 -->
<g id="node7" class="node">
<title>1629195279600</title>
<polygon fill="none" stroke="black" points="578.5,-110.5 578.5,-146.5 744,-146.5 744,-110.5 578.5,-110.5"/>
<text text-anchor="middle" x="620.62" y="-123.7" font-family="Times New Roman,serif" font-size="14.00">data &#45;0.1331</text>
<polyline fill="none" stroke="black" points="662.75,-111 662.75,-146.5"/>
<text text-anchor="middle" x="703.38" y="-123.7" font-family="Times New Roman,serif" font-size="14.00">grad 1.0000</text>
</g>
<!-- 1629195279600&#45;&gt;1629195279360+ -->
<g id="edge9" class="edge">
<title>1629195279600&#45;&gt;1629195279360+</title>
<path fill="none" stroke="black" d="M743.79,-112.62C753.02,-110.82 762.04,-109.06 770.22,-107.47"/>
<polygon fill="black" stroke="black" points="770.64,-110.76 779.79,-105.41 769.3,-103.89 770.64,-110.76"/>
</g>
<!-- 1629195279600*&#45;&gt;1629195279600 -->
<g id="edge3" class="edge">
<title>1629195279600*&#45;&gt;1629195279600</title>
<path fill="none" stroke="black" d="M542.87,-128.5C550.32,-128.5 558.89,-128.5 567.93,-128.5"/>
<polygon fill="black" stroke="black" points="567.71,-132 577.71,-128.5 567.71,-125 567.71,-132"/>
</g>
<!-- 1629193842512 -->
<g id="node9" class="node">
<title>1629193842512</title>
<polygon fill="none" stroke="black" points="287,-110.5 287,-146.5 452.5,-146.5 452.5,-110.5 287,-110.5"/>
<text text-anchor="middle" x="329.12" y="-123.7" font-family="Times New Roman,serif" font-size="14.00">data &#45;2.0000</text>
<polyline fill="none" stroke="black" points="371.25,-111 371.25,-146.5"/>
<text text-anchor="middle" x="411.88" y="-123.7" font-family="Times New Roman,serif" font-size="14.00">grad 0.0665</text>
</g>
<!-- 1629193842512&#45;&gt;1629195279600* -->
<g id="edge6" class="edge">
<title>1629193842512&#45;&gt;1629195279600*</title>
<path fill="none" stroke="black" d="M452.29,-128.5C460.97,-128.5 469.46,-128.5 477.25,-128.5"/>
<polygon fill="black" stroke="black" points="477.08,-132 487.08,-128.5 477.08,-125 477.08,-132"/>
</g>
<!-- 1629213852048 -->
<g id="node10" class="node">
<title>1629213852048</title>
<polygon fill="none" stroke="black" points="289.25,-0.5 289.25,-36.5 450.25,-36.5 450.25,-0.5 289.25,-0.5"/>
<text text-anchor="middle" x="329.12" y="-13.7" font-family="Times New Roman,serif" font-size="14.00">data 0.0000</text>
<polyline fill="none" stroke="black" points="369,-1 369,-36.5"/>
<text text-anchor="middle" x="409.62" y="-13.7" font-family="Times New Roman,serif" font-size="14.00">grad 1.0000</text>
</g>
<!-- 1629213852048&#45;&gt;1629195279840+ -->
<g id="edge10" class="edge">
<title>1629213852048&#45;&gt;1629195279840+</title>
<path fill="none" stroke="black" d="M427.76,-36.47C436.11,-39.35 444.56,-42.41 452.5,-45.5 462.63,-49.45 473.49,-54.17 483.24,-58.61"/>
<polygon fill="black" stroke="black" points="481.39,-62.07 491.93,-63.09 484.32,-55.72 481.39,-62.07"/>
</g>
<!-- 1629195279264 -->
<g id="node11" class="node">
<title>1629195279264</title>
<polygon fill="none" stroke="black" points="1169.88,-82.5 1169.88,-118.5 1330.88,-118.5 1330.88,-82.5 1169.88,-82.5"/>
<text text-anchor="middle" x="1209.75" y="-95.7" font-family="Times New Roman,serif" font-size="14.00">data 0.1024</text>
<polyline fill="none" stroke="black" points="1249.63,-83 1249.63,-118.5"/>
<text text-anchor="middle" x="1290.25" y="-95.7" font-family="Times New Roman,serif" font-size="14.00">grad 1.0000</text>
</g>
<!-- 1629195279264ReLU&#45;&gt;1629195279264 -->
<g id="edge4" class="edge">
<title>1629195279264ReLU&#45;&gt;1629195279264</title>
<path fill="none" stroke="black" d="M1134.27,-100.5C1141.9,-100.5 1150.38,-100.5 1159.18,-100.5"/>
<polygon fill="black" stroke="black" points="1159.04,-104 1169.04,-100.5 1159.04,-97 1159.04,-104"/>
</g>
<!-- 1629213576160 -->
<g id="node13" class="node">
<title>1629213576160</title>
<polygon fill="none" stroke="black" points="0,-28.5 0,-64.5 161,-64.5 161,-28.5 0,-28.5"/>
<text text-anchor="middle" x="39.88" y="-41.7" font-family="Times New Roman,serif" font-size="14.00">data 1.0000</text>
<polyline fill="none" stroke="black" points="79.75,-29 79.75,-64.5"/>
<text text-anchor="middle" x="120.38" y="-41.7" font-family="Times New Roman,serif" font-size="14.00">grad 0.2355</text>
</g>
<!-- 1629213576160&#45;&gt;1629195280080* -->
<g id="edge11" class="edge">
<title>1629213576160&#45;&gt;1629195280080*</title>
<path fill="none" stroke="black" d="M160.94,-61.66C169.93,-63.37 178.73,-65.05 186.75,-66.58"/>
<polygon fill="black" stroke="black" points="186.02,-70.2 196.5,-68.63 187.34,-63.32 186.02,-70.2"/>
</g>
<!-- 1629195279840 -->
<g id="node14" class="node">
<title>1629195279840</title>
<polygon fill="none" stroke="black" points="580.75,-55.5 580.75,-91.5 741.75,-91.5 741.75,-55.5 580.75,-55.5"/>
<text text-anchor="middle" x="620.62" y="-68.7" font-family="Times New Roman,serif" font-size="14.00">data 0.2355</text>
<polyline fill="none" stroke="black" points="660.5,-56 660.5,-91.5"/>
<text text-anchor="middle" x="701.12" y="-68.7" font-family="Times New Roman,serif" font-size="14.00">grad 1.0000</text>
</g>
<!-- 1629195279840&#45;&gt;1629195279360+ -->
<g id="edge7" class="edge">
<title>1629195279840&#45;&gt;1629195279360+</title>
<path fill="none" stroke="black" d="M741.69,-88.42C751.65,-90.29 761.4,-92.12 770.19,-93.77"/>
<polygon fill="black" stroke="black" points="769.27,-97.35 779.74,-95.76 770.56,-90.47 769.27,-97.35"/>
</g>
<!-- 1629195279840+&#45;&gt;1629195279840 -->
<g id="edge5" class="edge">
<title>1629195279840+&#45;&gt;1629195279840</title>
<path fill="none" stroke="black" d="M542.87,-73.5C550.9,-73.5 560.23,-73.5 570.04,-73.5"/>
<polygon fill="black" stroke="black" points="569.84,-77 579.84,-73.5 569.84,-70 569.84,-77"/>
</g>
</g>
</svg>
